<svg class="icon" fill="#000" xmlns="http://www.w3.org/2000/svg" viewBox="0 0 20 20"><path fill-rule="evenodd" clip-rule="evenodd" d="M19.504 14.055a9.496 9.496 0 0 0-1.769-2.47 12.957 12.957 0 0 0-.755-.783l-.03-.031c-.116-.113-.212-.207-.29-.287a24.763 24.763 0 0 0 2.509-4.365l.027-.062.02-.065c.09-.302.194-.877-.173-1.397-.38-.537-.988-.634-1.395-.634h-1.872a1.86 1.86 0 0 0-1.826 1.202c-.403.96-.908 1.874-1.505 2.726V5.695c0-.284-.026-.759-.33-1.16-.364-.479-.89-.574-1.255-.574H7.89a1.51 1.51 0 0 0-1.542 1.403l-.003.037v.037c0 .404.16.703.289.89.057.085.118.161.157.21l.01.01c.04.052.068.086.096.124.073.1.177.252.207.647v1.227a16.488 16.488 0 0 1-1.46-3.16l-.006-.018-.007-.018c-.1-.265-.263-.651-.59-.947-.38-.346-.83-.442-1.239-.442h-1.9c-.414 0-.913.097-1.285.49-.367.386-.408.849-.408 1.095v.11l.023.11A16.192 16.192 0 0 0 3.4 12.448a8.46 8.46 0 0 0 6.577 3.91l.035.002h.035c.605 0 1.235-.052 1.71-.368.639-.426.69-1.081.69-1.407v-.949c.163.133.367.312.616.552.302.302.542.563.748.791l.11.122v.001c.16.178.317.353.46.497.18.181.403.38.682.528.302.16.62.232.956.232h1.901c.4 0 .975-.095 1.38-.563.44-.51.406-1.136.267-1.586l-.025-.08-.037-.076Zm-4.766.088a21.886 21.886 0 0 0-.798-.845l-.003-.002c-1.13-1.09-1.658-1.28-2.032-1.28-.198 0-.418.022-.56.2a.646.646 0 0 0-.123.29c-.02.106-.027.23-.027.37v1.71c0 .212-.035.301-.133.367-.13.087-.41.158-1.01.158a7.208 7.208 0 0 1-5.626-3.377l-.006-.01-.008-.01a14.942 14.942 0 0 1-2.954-6.19c.003-.108.027-.173.065-.213.04-.042.135-.1.378-.1h1.9c.212 0 .32.046.4.117.089.081.166.219.26.465.467 1.371 1.097 2.654 1.695 3.597.298.472.592.864.856 1.141.133.139.262.253.386.335.12.079.255.141.395.141.073 0 .16-.007.242-.044a.437.437 0 0 0 .208-.194c.086-.156.11-.387.11-.69V7.27c-.044-.682-.25-1.066-.45-1.338-.044-.06-.087-.114-.125-.161l-.01-.013a2.246 2.246 0 0 1-.103-.134.325.325 0 0 1-.07-.179.26.26 0 0 1 .27-.234h2.995c.172 0 .23.042.259.08.041.054.076.167.076.404v3.773c0 .449.207.752.507.752.345 0 .594-.21 1.03-.645l.007-.007.006-.008a15.843 15.843 0 0 0 2.367-3.935l.004-.01a.61.61 0 0 1 .617-.405H17.648c.26 0 .346.067.374.106.03.042.05.131 0 .307a23.512 23.512 0 0 1-2.524 4.333l-.006.01c-.097.147-.202.31-.218.498-.016.2.07.383.223.58.111.164.34.388.572.615l.022.021c.244.239.508.497.72.747l.005.007.006.006a8.241 8.241 0 0 1 1.554 2.155c.064.217.025.328-.024.385-.058.067-.188.13-.433.13h-1.901a.76.76 0 0 1-.373-.087 1.632 1.632 0 0 1-.378-.304c-.119-.12-.248-.264-.406-.44l-.123-.136Z"/></svg>