<svg class="icon" fill="#000" xmlns="http://www.w3.org/2000/svg" viewBox="0 0 20 20"><path fill-rule="evenodd" clip-rule="evenodd" d="M4.823 11.684a.63.63 0 0 0 .11.026 326.733 326.733 0 0 1 .704 1.669c.419 1.001.841 2.033.934 2.329.116.365.238.613.371.783a.946.946 0 0 0 .242.222.735.735 0 0 0 .155.073c.266.101.51.059.662.008a1.097 1.097 0 0 0 .254-.125l.004-.003 2.355-1.468 2.72 2.085c.04.031.084.057.13.077.327.143.644.193.942.152a1.44 1.44 0 0 0 .708-.306 1.659 1.659 0 0 0 .47-.607l.008-.018.003-.007.001-.003v-.002l.001-.001a.623.623 0 0 0 .033-.11l2.483-12.522a.62.62 0 0 0 .012-.121c0-.367-.138-.716-.463-.927-.277-.181-.586-.189-.782-.174a2.411 2.411 0 0 0-.703.168l-.05.02-.01.004L2.19 8.37h-.002a1.627 1.627 0 0 0-.14.058 2.102 2.102 0 0 0-.316.177c-.189.13-.624.484-.55 1.07.058.468.378.755.573.893.107.076.209.13.283.166.035.016.106.045.137.057l.008.004 2.64.889Zm11.782-7.627-.002.001a.634.634 0 0 1-.02.009L2.636 9.537a.617.617 0 0 1-.022.008l-.007.003a.857.857 0 0 0-.076.034.73.73 0 0 0 .071.035l2.62.882a.624.624 0 0 1 .133.063L14.003 5.5l.008-.005a1.261 1.261 0 0 1 .104-.056c.06-.03.156-.076.264-.11a.901.901 0 0 1 .537-.011.712.712 0 0 1 .49.574.701.701 0 0 1 .002.354c-.057.229-.218.407-.364.544-.125.117-1.746 1.68-3.346 3.223l-2.177 2.1-.387.375 4.893 3.752c.112.04.179.038.21.034a.19.19 0 0 0 .096-.044.414.414 0 0 0 .087-.1v-.001l2.41-12.144a1.561 1.561 0 0 0-.223.072h-.002Zm-7.05 10.329-.977-.749-.237 1.505 1.213-.756Zm-1.873-2.234.971-.937 2.177-2.102.81-.782-5.433 3.181.03.069a279.849 279.849 0 0 1 1.016 2.433l.236-1.5a.623.623 0 0 1 .193-.362Z"/></svg>