<svg class="icon" fill="#000" xmlns="http://www.w3.org/2000/svg" viewBox="0 0 20 20"><path d="M13.334 5.834a.833.833 0 1 1 1.666 0 .833.833 0 0 1-1.666 0Z"/><path fill-rule="evenodd" clip-rule="evenodd" d="M10 6.042a3.958 3.958 0 1 0 0 7.917 3.958 3.958 0 0 0 0-7.917ZM7.292 10a2.708 2.708 0 1 1 5.417 0 2.708 2.708 0 0 1-5.417 0Z"/><path fill-rule="evenodd" clip-rule="evenodd" d="M14.382 2.361a39.767 39.767 0 0 0-8.764 0 3.659 3.659 0 0 0-3.227 3.194 38.268 38.268 0 0 0 0 8.89 3.659 3.659 0 0 0 3.227 3.195c2.89.322 5.875.322 8.764 0a3.659 3.659 0 0 0 3.228-3.194 38.273 38.273 0 0 0 0-8.891 3.659 3.659 0 0 0-3.228-3.194ZM5.757 3.604a38.517 38.517 0 0 1 8.486 0A2.409 2.409 0 0 1 16.368 5.7a37.014 37.014 0 0 1 0 8.6 2.408 2.408 0 0 1-2.125 2.097c-2.796.313-5.69.313-8.486 0a2.409 2.409 0 0 1-2.125-2.096 37.017 37.017 0 0 1 0-8.6 2.409 2.409 0 0 1 2.125-2.097Z"/></svg>