<svg class="icon" fill="#000" xmlns="http://www.w3.org/2000/svg" viewBox="0 0 20 20"><path fill-rule="evenodd" clip-rule="evenodd" d="M4.06 8.217a15.731 15.731 0 0 0 8.15 7.918l.012.005.698.31a2.055 2.055 0 0 0 2.502-.673l1.164-1.613a.229.229 0 0 0-.041-.311l-2.033-1.64a.228.228 0 0 0-.327.041l-.79 1.068a.685.685 0 0 1-.833.216 12.233 12.233 0 0 1-6.093-6.096.686.686 0 0 1 .216-.834l1.067-.791a.229.229 0 0 0 .042-.327l-1.64-2.034a.228.228 0 0 0-.311-.042l-1.62 1.17a2.057 2.057 0 0 0-.668 2.519l.505 1.113Zm7.61 9.177a17.102 17.102 0 0 1-8.855-8.606l-.001-.003-.507-1.115a3.429 3.429 0 0 1 1.114-4.197l1.62-1.17a1.598 1.598 0 0 1 2.18.292L8.86 4.63a1.6 1.6 0 0 1-.293 2.29l-.612.453a10.866 10.866 0 0 0 4.675 4.678l.454-.612a1.598 1.598 0 0 1 2.288-.293l2.032 1.64a1.6 1.6 0 0 1 .292 2.182l-1.164 1.612a3.424 3.424 0 0 1-4.17 1.124l-.693-.309Z"/></svg>