<svg class="icon" fill="#000" xmlns="http://www.w3.org/2000/svg" viewBox="0 0 20 20"><path d="M7.405 5.974c.152.004.321.013.482.37.107.237.286.675.432 1.031.114.277.208.506.232.552.053.107.086.23.016.374l-.024.048c-.056.117-.096.2-.19.309-.04.044-.08.093-.12.142-.071.086-.141.17-.202.231-.107.107-.218.222-.095.435.124.213.557.915 1.196 1.481.687.612 1.284.87 1.586 1 .059.025.106.046.141.063.214.107.342.09.466-.053.124-.144.536-.624.68-.838.14-.213.284-.18.482-.106s1.254.59 1.468.697l.119.058c.149.071.25.12.293.193.054.09.054.517-.124 1.017-.18.5-1.055.98-1.45 1.018a3.914 3.914 0 0 0-.114.012c-.362.044-.823.1-2.463-.546-2.021-.794-3.355-2.767-3.625-3.165a2.267 2.267 0 0 0-.044-.064l-.005-.006c-.122-.164-.873-1.169-.873-2.205 0-.992.488-1.508.711-1.744l.04-.041a.792.792 0 0 1 .572-.267c.145 0 .289 0 .413.004Z"/><path fill-rule="evenodd" clip-rule="evenodd" d="M1.82 17.776a.333.333 0 0 0 .405.41l3.84-1.002a8.333 8.333 0 0 0 3.965 1.005h.005c4.571 0 8.298-3.705 8.298-8.26a8.19 8.19 0 0 0-2.428-5.842 8.264 8.264 0 0 0-5.87-2.421c-4.572 0-8.299 3.705-8.299 8.26a8.23 8.23 0 0 0 1.11 4.127L1.82 17.776Zm2.23-3.39a1.25 1.25 0 0 0-.123-.96 6.98 6.98 0 0 1-.94-3.5c0-3.859 3.16-7.01 7.048-7.01 1.891 0 3.656.73 4.988 2.057a6.94 6.94 0 0 1 2.06 4.957c0 3.858-3.161 7.009-7.048 7.009h-.005c-1.18 0-2.34-.297-3.37-.854a1.25 1.25 0 0 0-.911-.11l-2.302.6.603-2.19Z"/></svg>